<svg data-v-0dd9719b="" version="1.0" xmlns="http://www.w3.org/2000/svg" xmlns:xlink="http://www.w3.org/1999/xlink" width="100%" height="100%" viewBox="0 0 340.000000 250.000000" preserveAspectRatio="xMidYMid meet" color-interpolation-filters="sRGB" style="margin: auto;"><g data-v-0dd9719b="" class="iconmbgsvg" transform="translate(51.375,51.47906494140625)"><g fill="#ffffff" hollow-target="textRect"><g transform="translate(54.875,0)" mask="url(#d22c1595-9b29-452f-9ca8-0de00cb34d0c)"><g><rect fill="#000000" fill-opacity="0" stroke-width="2" x="0" y="0" width="127.5" height="147.04186368354283" class="image-rect"></rect> <svg filter="url(#colors3833152863)" x="0" y="0" width="127.5" height="147.04186368354283" filtersec="colorsf7670117047" class="image-svg-svg primary" style="overflow: visible;"><svg viewBox="0.07700000703334808 0.6580000519752502 56.6150016784668 65.29199981689453" xmlns="http://www.w3.org/2000/svg"><path d="M56.692 16.908l-.046 32.58L28.685 65.95.077 49.434l.277-32.446L28.546.658l28.146 16.25zm-2.956 1.704L28.548 4.07 3.293 18.698l-.247 29.04L28.67 62.531l25.025-14.734.04-29.186zm-1.716.99l-.039 27.215-23.32 13.73L4.828 46.784 5 19.692 28.55 6.05 52.02 19.6z" fill="#000" fill-rule="evenodd"></path></svg></svg> <defs><filter id="colors3833152863"><feColorMatrix type="matrix" values="0 0 0 0 0  0 0 0 0 0  0 0 0 0 0  0 0 0 1 0" class="icon-fecolormatrix"></feColorMatrix></filter> <filter id="colorsf7670117047"><feColorMatrix type="matrix" values="0 0 0 0 0.99609375  0 0 0 0 0.99609375  0 0 0 0 0.99609375  0 0 0 1 0" class="icon-fecolormatrix"></feColorMatrix></filter> <filter id="colorsb5495463448"><feColorMatrix type="matrix" values="0 0 0 0 0  0 0 0 0 0  0 0 0 0 0  0 0 0 1 0" class="icon-fecolormatrix"></feColorMatrix></filter></defs></g><rect v-gra="id" width="139.5" height="159.0418701171875" transform="translate(-6, -6)" style="pointer-events:none;" fill="url(#hTnHqT8eNP1E9PxbpnHbd)"></rect></g> <g transform="translate(0,55.52093505859375)"><g data-gra="path-name" fill-rule="" class="tp-name" fill="url(#c92f0cb1-b21a-4fac-8786-b9b01d8bd529)"><g transform="scale(1)"><g><path d="M25.5-9.5L25.5-25.5Q25.5-28.5 22.5-28.5L22.5-28.5 14-28.5Q11-28.5 11-25.5L11-25.5 11-9.5Q11-6.5 14-6.5L14-6.5 22.5-6.5Q25.5-6.5 25.5-9.5L25.5-9.5ZM34.5-25.5L34.5-9.5Q34.5-4.25 32.13-1.88 29.75 0.5 24.5 0.5L24.5 0.5 12 0.5Q6.75 0.5 4.38-1.88 2-4.25 2-9.5L2-9.5 2-25.5Q2-30.75 4.38-33.13 6.75-35.5 12-35.5L12-35.5 24.5-35.5Q29.75-35.5 32.13-33.13 34.5-30.75 34.5-25.5L34.5-25.5ZM69.5 0L69.5-19.5 62.5-7 55.5-7 48.5-19.5 48.5 0 39.5 0 39.5-35 49-35 59-16.5 69-35 78.5-35 78.5 0 69.5 0ZM115-35L115 0 105.5 0 93.5-21 93.5 0 84.5 0 84.5-35 94-35 106-14 106-35 115-35ZM137.5-7L137.5 0 119.5 0 119.5-7 124-7 124-28 119.5-28 119.5-35 137.5-35 137.5-28 133-28 133-7 137.5-7ZM151-35L151-7 169.25-7 169.25 0 142 0 142-35 151-35ZM195.25-9.5L195.25-25.5Q195.25-28.5 192.25-28.5L192.25-28.5 183.75-28.5Q180.75-28.5 180.75-25.5L180.75-25.5 180.75-9.5Q180.75-6.5 183.75-6.5L183.75-6.5 192.25-6.5Q195.25-6.5 195.25-9.5L195.25-9.5ZM204.25-25.5L204.25-9.5Q204.25-4.25 201.88-1.88 199.5 0.5 194.25 0.5L194.25 0.5 181.75 0.5Q176.5 0.5 174.13-1.88 171.75-4.25 171.75-9.5L171.75-9.5 171.75-25.5Q171.75-30.75 174.13-33.13 176.5-35.5 181.75-35.5L181.75-35.5 194.25-35.5Q199.5-35.5 201.88-33.13 204.25-30.75 204.25-25.5L204.25-25.5ZM239.25-20L239.25-0.75Q227.55 0.5 217.75 0.5L217.75 0.5Q212.85 0.5 210.55-1.8 208.25-4.1 208.25-9L208.25-9 208.25-25Q208.25-30.25 210.63-32.63 213-35 218.25-35L218.25-35 236.25-35 236.25-28 220.25-28Q217.25-28 217.25-25L217.25-25 217.25-9Q217.25-7.85 217.93-7.18 218.6-6.5 219.75-6.5L219.75-6.5Q225.5-6.5 230.25-6.75L230.25-6.75 230.25-14 223.75-14 223.75-20 239.25-20Z" transform="translate(-2, 35.5)"></path></g> <!----> <!----> <!----> <!----> <!----> <!----> <!----></g></g> <!----></g></g></g><mask id="e497c98c-32f6-4159-b8fb-3ea9e5991479"><g fill="white"><g><rect fill-opacity="1" stroke-width="2" x="0" y="0" width="127.5" height="147.04186368354283" class="image-rect"></rect> <svg x="0" y="0" width="127.5" height="147.04186368354283" class="image-svg-svg primary" style="overflow: visible;" filter="url(#colorsf7670117047)"><svg viewBox="0.07700000703334808 0.6580000519752502 56.6150016784668 65.29199981689453" xmlns="http://www.w3.org/2000/svg"><path d="M56.692 16.908l-.046 32.58L28.685 65.95.077 49.434l.277-32.446L28.546.658l28.146 16.25zm-2.956 1.704L28.548 4.07 3.293 18.698l-.247 29.04L28.67 62.531l25.025-14.734.04-29.186zm-1.716.99l-.039 27.215-23.32 13.73L4.828 46.784 5 19.692 28.55 6.05 52.02 19.6z" fill-rule="evenodd"></path></svg></svg> <defs>  </defs></g></g> <g transform="translate(-54.875,55.52093505859375)"><rect fill="black" fill-opacity="1" x="-3.5" y="-3.5" width="244.25" height="43"></rect><rect fill="black" fill-opacity="1" x="-3.5" y="-3.5"></rect></g><g transform="translate(-54.875,55.52093505859375)" fill="black"><g data-gra="path-name" fill-rule="" class="tp-name"><g transform="scale(1)"><g><path d="M25.5-9.5L25.5-25.5Q25.5-28.5 22.5-28.5L22.5-28.5 14-28.5Q11-28.5 11-25.5L11-25.5 11-9.5Q11-6.5 14-6.5L14-6.5 22.5-6.5Q25.5-6.5 25.5-9.5L25.5-9.5ZM34.5-25.5L34.5-9.5Q34.5-4.25 32.13-1.88 29.75 0.5 24.5 0.5L24.5 0.5 12 0.5Q6.75 0.5 4.38-1.88 2-4.25 2-9.5L2-9.5 2-25.5Q2-30.75 4.38-33.13 6.75-35.5 12-35.5L12-35.5 24.5-35.5Q29.75-35.5 32.13-33.13 34.5-30.75 34.5-25.5L34.5-25.5ZM69.5 0L69.5-19.5 62.5-7 55.5-7 48.5-19.5 48.5 0 39.5 0 39.5-35 49-35 59-16.5 69-35 78.5-35 78.5 0 69.5 0ZM115-35L115 0 105.5 0 93.5-21 93.5 0 84.5 0 84.5-35 94-35 106-14 106-35 115-35ZM137.5-7L137.5 0 119.5 0 119.5-7 124-7 124-28 119.5-28 119.5-35 137.5-35 137.5-28 133-28 133-7 137.5-7ZM151-35L151-7 169.25-7 169.25 0 142 0 142-35 151-35ZM195.25-9.5L195.25-25.5Q195.25-28.5 192.25-28.5L192.25-28.5 183.75-28.5Q180.75-28.5 180.75-25.5L180.75-25.5 180.75-9.5Q180.75-6.5 183.75-6.5L183.75-6.5 192.25-6.5Q195.25-6.5 195.25-9.5L195.25-9.5ZM204.25-25.5L204.25-9.5Q204.25-4.25 201.88-1.88 199.5 0.5 194.25 0.5L194.25 0.5 181.75 0.5Q176.5 0.5 174.13-1.88 171.75-4.25 171.75-9.5L171.75-9.5 171.75-25.5Q171.75-30.75 174.13-33.13 176.5-35.5 181.75-35.5L181.75-35.5 194.25-35.5Q199.5-35.5 201.88-33.13 204.25-30.75 204.25-25.5L204.25-25.5ZM239.25-20L239.25-0.75Q227.55 0.5 217.75 0.5L217.75 0.5Q212.85 0.5 210.55-1.8 208.25-4.1 208.25-9L208.25-9 208.25-25Q208.25-30.25 210.63-32.63 213-35 218.25-35L218.25-35 236.25-35 236.25-28 220.25-28Q217.25-28 217.25-25L217.25-25 217.25-9Q217.25-7.85 217.93-7.18 218.6-6.5 219.75-6.5L219.75-6.5Q225.5-6.5 230.25-6.75L230.25-6.75 230.25-14 223.75-14 223.75-20 239.25-20Z" transform="translate(-2, 35.5)"></path></g>       </g></g> </g></mask><defs v-gra="od"><linearGradient x1="0" y1="1" x2="0" y2="0" id="c92f0cb1-b21a-4fac-8786-b9b01d8bd529"><stop offset="0%" stop-color="#ffecd2"></stop><stop offset="100%" stop-color="#fcb69f"></stop></linearGradient><filter id="42443b3f1de60f6b6fd3b6a9844b4764" filterUnits="objectBoundingBox"><feColorMatrix type="matrix" values="0 0 0 0 0.99609375  0 0 0 0 0.99609375  0 0 0 0 0.99609375  0 0 0 1 0"></feColorMatrix></filter></defs><defs v-gra="id"><filter id="28d85540-8ff4-47c4-bf56-cb12af8c0f75" filterUnits="userSpaceOnUse"><feColorMatrix type="matrix" values="0 0 0 0 0.99609375  0 0 0 0 0.99609375  0 0 0 0 0.99609375  0 0 0 1 0"></feColorMatrix></filter><linearGradient x1="0" y1="1" x2="0" y2="0" id="hTnHqT8eNP1E9PxbpnHbd"><stop offset="0%" stop-color="#ffecd2"></stop><stop offset="100%" stop-color="#fcb69f"></stop></linearGradient><filter id="42443b3f1de60f6b6fd3b6a9844b4764" filterUnits="objectBoundingBox"><feColorMatrix type="matrix" values="0 0 0 0 0.99609375  0 0 0 0 0.99609375  0 0 0 0 0.99609375  0 0 0 1 0"></feColorMatrix></filter></defs><mask v-gra="im" id="d22c1595-9b29-452f-9ca8-0de00cb34d0c"><g mask="url(#e497c98c-32f6-4159-b8fb-3ea9e5991479)" filter="url(#28d85540-8ff4-47c4-bf56-cb12af8c0f75)"><g><rect fill="#000000" fill-opacity="0" stroke-width="2" x="0" y="0" width="127.5" height="147.04186368354283" class="image-rect"></rect> <svg x="0" y="0" width="127.5" height="147.04186368354283" filtersec="colorsf7670117047" class="image-svg-svg primary" style="overflow: visible;"><svg viewBox="0.07700000703334808 0.6580000519752502 56.6150016784668 65.29199981689453" xmlns="http://www.w3.org/2000/svg"><path d="M56.692 16.908l-.046 32.58L28.685 65.95.077 49.434l.277-32.446L28.546.658l28.146 16.25zm-2.956 1.704L28.548 4.07 3.293 18.698l-.247 29.04L28.67 62.531l25.025-14.734.04-29.186zm-1.716.99l-.039 27.215-23.32 13.73L4.828 46.784 5 19.692 28.55 6.05 52.02 19.6z" fill="#000" fill-rule="evenodd"></path></svg></svg> <defs><filter id="colors3833152863"><feColorMatrix type="matrix" values="0 0 0 0 0  0 0 0 0 0  0 0 0 0 0  0 0 0 1 0" class="icon-fecolormatrix"></feColorMatrix></filter> <filter id="colorsf7670117047"><feColorMatrix type="matrix" values="0 0 0 0 0.99609375  0 0 0 0 0.99609375  0 0 0 0 0.99609375  0 0 0 1 0" class="icon-fecolormatrix"></feColorMatrix></filter> <filter id="colorsb5495463448"><feColorMatrix type="matrix" values="0 0 0 0 0  0 0 0 0 0  0 0 0 0 0  0 0 0 1 0" class="icon-fecolormatrix"></feColorMatrix></filter></defs></g></g></mask></svg>